<?xml version="1.0" encoding="UTF-8" standalone="no"?>
<!DOCTYPE svg PUBLIC "-//W3C//DTD SVG 1.1//EN" "http://www.w3.org/Graphics/SVG/1.1/DTD/svg11.dtd">
<svg width="100%" height="100%" viewBox="0 0 1000 270" version="1.1" xmlns="http://www.w3.org/2000/svg" xmlns:xlink="http://www.w3.org/1999/xlink" xml:space="preserve" xmlns:serif="http://www.serif.com/" style="fill-rule:evenodd;clip-rule:evenodd;stroke-linejoin:round;stroke-miterlimit:2;">
    <g transform="matrix(1.00006,0,0,1.00054,0.98052,0.0937974)">
        <rect x="-0.98" y="-0.094" width="999.937" height="269.855" style="fill:none;"/>
    </g>
    <g transform="matrix(1,0,0,1,-17.9602,-142.394)">
        <g transform="matrix(1.85078,0,0,1.85078,-830.134,-2159.65)">
            <path d="M558.507,1336.87L557.673,1344.81L541.285,1353.74L503.578,1353.74L489.054,1344.81L497.182,1268.07L513.571,1259.14L551.278,1259.14L565.801,1268.07L563.802,1287.12L545.149,1287.12L546.348,1275.13L515.036,1275.13L512.102,1303.27L496.398,1303.29L496.404,1308.03L511.608,1308.01L510.599,1317.69L494.108,1317.69L494.108,1322.43L510.105,1322.43L509.093,1332.13L492.201,1332.13L492.201,1336.87L508.6,1336.87L508.507,1337.75L539.819,1337.75L539.907,1336.87L558.507,1336.87ZM570.061,1303.19L574.994,1255.81L593.248,1255.81L589.518,1291.25L599.644,1285.79L617.098,1285.79L631.622,1294.71L630.74,1303.11L612.387,1303.13L612.568,1301.38L588.452,1301.38L588.267,1303.17L570.061,1303.19ZM638.684,1303.1L640.415,1286.45L658.669,1286.45L656.939,1303.1L641.291,1303.1L641.288,1303.1L638.684,1303.1ZM664.956,1303.1L666.797,1285.79L681.853,1285.79L684.385,1291.25L694.511,1285.79L711.966,1285.79L726.489,1294.71L725.597,1303.1L707.255,1303.1L707.435,1301.38L683.319,1301.38L683.138,1303.1L664.956,1303.1ZM734.898,1303.1L739.413,1259.81L796.573,1259.81L794.841,1275.79L756.335,1275.79L754.203,1297.11L783.985,1297.11L773.172,1303.1L734.898,1303.1ZM794.619,1291.23L798.305,1255.81L816.559,1255.81L813.085,1289.08L799.11,1289.08C798.709,1289.08 798.315,1289.18 797.964,1289.38L794.619,1291.23ZM840.224,1289.08L846.272,1285.79L874.652,1285.79L880.011,1289.08L840.224,1289.08ZM895.704,1289.08L895.304,1286.45L912.226,1286.45L912.597,1289.08L895.704,1289.08ZM933.738,1289.08L934.743,1286.45L951.532,1286.45L951.993,1289.08L933.738,1289.08ZM973.135,1289.08L974.049,1286.45L990.971,1286.45L990.025,1289.08L973.135,1289.08ZM988.32,1293.82L979.728,1317.68L963.182,1317.68L971.487,1293.82L988.32,1293.82ZM978.023,1322.42L972.101,1338.87L945.595,1338.87L942.732,1322.42L957.846,1322.42L958.993,1328.96L959.26,1328.96L961.534,1322.42L978.023,1322.42ZM970.396,1343.6L966.988,1353.07L948.067,1353.07L946.419,1343.6L970.396,1343.6ZM927.977,1343.6L924.351,1353.07L905.431,1353.07L903.991,1343.6L927.977,1343.6ZM883.974,1343.6L883.846,1344.81L867.457,1353.74L839.077,1353.74L824.554,1344.81L824.682,1343.6L883.974,1343.6ZM820.728,1343.6L819.757,1353.07L803.635,1353.07L789.112,1344.15L789.168,1343.6L820.728,1343.6ZM749.319,1343.6L748.34,1353.07L729.686,1353.07L730.674,1343.6L749.319,1343.6ZM721.288,1343.6L721.159,1344.81L704.771,1353.74L687.316,1353.74L678.389,1348.28L675.058,1379.72L656.804,1379.72L660.792,1342.23L665.152,1343.51C665.369,1343.57 665.593,1343.6 665.818,1343.6L721.288,1343.6ZM653.103,1339.98L651.741,1353.07L633.487,1353.07L635.172,1336.87L642.493,1336.87L653.103,1339.98ZM627.195,1336.87L625.493,1353.07L607.239,1353.07L608.909,1336.87L627.195,1336.87ZM584.793,1336.87L583.122,1353.07L564.868,1353.07L566.555,1336.87L584.793,1336.87ZM568.552,1317.69L569.568,1307.93L587.779,1307.9L586.77,1317.69L568.552,1317.69ZM540.381,1332.13L541.018,1325.76L559.672,1325.76L559.003,1332.13L540.381,1332.13ZM567.048,1332.13L568.059,1322.43L586.282,1322.43L585.281,1332.13L567.048,1332.13ZM630.242,1307.85L629.209,1317.69L610.886,1317.69L611.899,1307.87L630.242,1307.85ZM656.446,1307.83L655.421,1317.69L637.167,1317.69L638.192,1307.84L641.293,1307.83L656.446,1307.83ZM682.641,1307.83L681.605,1317.69L663.403,1317.69L664.452,1307.83L682.641,1307.83ZM725.093,1307.83L724.045,1317.69L705.721,1317.69L706.757,1307.83L725.093,1307.83ZM784.138,1302.44L782.983,1313.1L752.471,1313.1L751.997,1317.69L733.377,1317.69L734.405,1307.83L773.783,1307.83C774.184,1307.83 774.578,1307.73 774.929,1307.54L784.138,1302.44ZM812.591,1293.82L810.099,1317.69L791.865,1317.69L794.021,1296.97L799.722,1293.82L812.591,1293.82ZM887.715,1293.82L889.175,1294.71L886.731,1317.69L868.408,1317.69L870.122,1301.38L847.338,1301.38L845.624,1317.69L827.439,1317.69L829.883,1294.71L831.531,1293.82L887.715,1293.82ZM913.265,1293.82L916.632,1317.68L900.052,1317.68L896.424,1293.82L913.265,1293.82ZM952.824,1293.82L957.014,1317.68L941.908,1317.68L940.739,1310.97L940.473,1310.97L937.901,1317.68L922.799,1317.68L931.927,1293.82L952.824,1293.82ZM936.088,1322.42L929.79,1338.87L903.271,1338.87L900.771,1322.42L917.3,1322.42L918.222,1328.96L918.488,1328.96L920.988,1322.42L936.088,1322.42ZM825.186,1338.87L826.936,1322.42L845.126,1322.42L843.474,1338.15L866.258,1338.15L867.911,1322.42L886.228,1322.42L884.478,1338.87L825.186,1338.87ZM789.661,1338.87L791.373,1322.42L809.604,1322.42L808.032,1337.48L821.356,1337.48L821.214,1338.87L789.661,1338.87ZM731.168,1338.87L732.883,1322.42L751.507,1322.42L749.808,1338.87L731.168,1338.87ZM661.301,1337.44L662.899,1322.42L681.107,1322.42L679.455,1338.15L703.571,1338.15L705.224,1322.42L723.541,1322.42L721.791,1338.87L666.158,1338.87L661.301,1337.44ZM635.665,1332.13L636.674,1322.42L654.928,1322.42L653.601,1335.19L643.499,1332.23C643.283,1332.16 643.059,1332.13 642.833,1332.13L635.665,1332.13ZM609.398,1332.13L610.398,1322.43L628.711,1322.42L627.692,1332.13L609.398,1332.13ZM641.082,1274.06L642.947,1255.81L662.533,1255.81L660.668,1274.06L641.082,1274.06Z"/>
        </g>
        <g transform="matrix(1.85078,0,0,1.85078,-830.134,-2159.65)">
            <path d="M556.297,1336.87L555.673,1342.81L539.285,1351.74L501.578,1351.74L487.054,1342.81L487.587,1337.78L481.443,1337.78C480.783,1337.78 480.247,1336.99 480.247,1336.01L480.247,1335.9L465.815,1335.9L465.815,1332.57L480.247,1332.57L480.247,1332.47C480.247,1331.49 480.783,1330.7 481.443,1330.7L488.337,1330.7L489.089,1323.6L483.443,1323.6C482.783,1323.6 482.247,1322.8 482.247,1321.83L482.247,1321.72L467.815,1321.72L467.815,1318.39L482.247,1318.39L482.247,1318.29C482.247,1317.31 482.783,1316.52 483.443,1316.52L489.839,1316.52L490.624,1309.1L485.443,1309.1C484.783,1309.1 484.247,1308.31 484.247,1307.33L484.247,1307.23L469.815,1307.23L469.815,1303.89L484.247,1303.89L484.247,1303.79C484.247,1302.81 484.783,1302.02 485.443,1302.02L491.374,1302.02L495.182,1266.07L511.571,1257.14L549.278,1257.14L563.801,1266.07L561.802,1285.12L543.149,1285.12L544.348,1273.13L513.036,1273.13L509.893,1303.28L496.398,1303.29L496.404,1308.03L509.399,1308.01L508.39,1317.69L494.108,1317.69L494.108,1322.43L507.897,1322.43L506.885,1332.13L492.201,1332.13L492.201,1336.87L556.297,1336.87ZM567.853,1303.2L572.994,1253.81L591.248,1253.81L587.518,1289.25L597.644,1283.79L615.098,1283.79L629.622,1292.71L628.529,1303.11L610.18,1303.14L610.568,1299.38L586.452,1299.38L586.06,1303.17L567.853,1303.2ZM636.476,1303.1L638.415,1284.45L656.669,1284.45L654.731,1303.1L641.291,1303.1L641.288,1303.1L636.476,1303.1ZM662.743,1303.1L664.797,1283.79L679.853,1283.79L682.385,1289.25L692.511,1283.79L709.966,1283.79L724.489,1292.71L723.384,1303.1L705.045,1303.1L705.435,1299.38L681.319,1299.38L680.928,1303.1L662.743,1303.1ZM732.69,1303.1L737.413,1257.81L794.573,1257.81L792.841,1273.79L754.335,1273.79L752.203,1295.11L782.715,1295.11L782.403,1297.99L773.172,1303.1L732.69,1303.1ZM792.276,1292.53L796.305,1253.81L814.559,1253.81L810.876,1289.08L799.11,1289.08C798.709,1289.08 798.315,1289.18 797.964,1289.38L792.276,1292.53ZM834.552,1289.08L844.272,1283.79L872.652,1283.79L881.265,1289.08L834.552,1289.08ZM894.008,1289.08L893.304,1284.45L910.226,1284.45L910.879,1289.08L894.008,1289.08ZM930.973,1289.08L932.743,1284.45L949.532,1284.45L950.344,1289.08L930.973,1289.08ZM970.439,1289.08L972.049,1284.45L988.971,1284.45L987.305,1289.08L970.439,1289.08ZM985.6,1293.82L977.008,1317.68L960.486,1317.68L968.791,1293.82L985.6,1293.82ZM975.303,1322.42L969.381,1338.87L943.943,1338.87L941.08,1322.42L956.197,1322.42L956.993,1326.96L957.26,1326.96L958.838,1322.42L975.303,1322.42ZM967.676,1343.6L964.988,1351.07L946.067,1351.07L944.767,1343.6L967.676,1343.6ZM925.211,1343.6L922.351,1351.07L903.431,1351.07L902.295,1343.6L925.211,1343.6ZM880.392,1343.6L865.457,1351.74L837.077,1351.74L823.842,1343.6L880.392,1343.6ZM818.523,1343.6L817.757,1351.07L801.635,1351.07L789.483,1343.6L818.523,1343.6ZM747.112,1343.6L746.34,1351.07L727.686,1351.07L728.465,1343.6L747.112,1343.6ZM717.706,1343.6L702.771,1351.74L685.316,1351.74L676.389,1346.28L673.058,1377.72L654.804,1377.72L658.647,1341.6L665.152,1343.51C665.369,1343.57 665.593,1343.6 665.818,1343.6L717.706,1343.6ZM650.96,1339.35L649.741,1351.07L631.487,1351.07L632.964,1336.87L642.493,1336.87L650.96,1339.35ZM624.985,1336.87L623.493,1351.07L605.239,1351.07L606.703,1336.87L624.985,1336.87ZM582.587,1336.87L581.122,1351.07L562.868,1351.07L564.347,1336.87L582.587,1336.87ZM566.344,1317.69L567.36,1307.93L585.572,1307.91L584.564,1317.69L566.344,1317.69ZM538.181,1332.13L539.018,1323.76L557.672,1323.76L556.794,1332.13L538.181,1332.13ZM564.84,1332.13L565.851,1322.43L584.075,1322.43L583.075,1332.13L564.84,1332.13ZM628.032,1307.85L626.999,1317.69L608.68,1317.69L609.692,1307.87L628.032,1307.85ZM654.238,1307.83L653.213,1317.69L634.959,1317.69L635.983,1307.84L641.293,1307.83L654.238,1307.83ZM680.43,1307.83L679.395,1317.69L661.19,1317.69L662.239,1307.83L680.43,1307.83ZM722.881,1307.83L721.832,1317.69L703.511,1317.69L704.547,1307.83L722.881,1307.83ZM781.78,1303.75L780.983,1311.1L750.471,1311.1L749.79,1317.69L731.168,1317.69L732.196,1307.83L773.783,1307.83C774.184,1307.83 774.578,1307.73 774.929,1307.54L781.78,1303.75ZM810.382,1293.82L807.89,1317.69L789.657,1317.69L791.678,1298.27L799.722,1293.82L810.382,1293.82ZM887.058,1293.82L884.519,1317.69L866.198,1317.69L868.122,1299.38L845.338,1299.38L843.414,1317.69L825.227,1317.69L827.766,1293.82L887.058,1293.82ZM911.547,1293.82L914.914,1317.68L898.356,1317.68L894.728,1293.82L911.547,1293.82ZM951.175,1293.82L955.365,1317.68L940.256,1317.68L938.739,1308.97L938.473,1308.97L935.136,1317.68L920.034,1317.68L929.162,1293.82L951.175,1293.82ZM933.322,1322.42L927.024,1338.87L901.575,1338.87L899.075,1322.42L915.582,1322.42L916.222,1326.96L916.488,1326.96L918.223,1322.42L933.322,1322.42ZM822.973,1338.87L824.723,1322.42L842.916,1322.42L841.474,1336.15L864.258,1336.15L865.7,1322.42L884.015,1322.42L882.265,1338.87L822.973,1338.87ZM787.453,1338.87L789.164,1322.42L807.396,1322.42L806.032,1335.48L819.356,1335.48L819.009,1338.87L787.453,1338.87ZM728.959,1338.87L730.674,1322.42L749.301,1322.42L747.601,1338.87L728.959,1338.87ZM659.156,1336.82L660.687,1322.42L678.897,1322.42L677.455,1336.15L701.571,1336.15L703.014,1322.42L721.328,1322.42L719.579,1338.87L666.158,1338.87L659.156,1336.82ZM633.457,1332.13L634.466,1322.42L652.72,1322.42L651.458,1334.56L643.499,1332.23C643.283,1332.16 643.059,1332.13 642.833,1332.13L633.457,1332.13ZM607.191,1332.13L608.192,1322.43L626.501,1322.42L625.482,1332.13L607.191,1332.13ZM639.082,1272.06L640.947,1253.81L660.533,1253.81L658.668,1272.06L639.082,1272.06Z" style="fill:url(#_Linear1);"/>
        </g>
    </g>
    <defs>
        <linearGradient id="_Linear1" x1="0" y1="0" x2="1" y2="0" gradientUnits="userSpaceOnUse" gradientTransform="matrix(495.54,-73.8965,73.8965,495.54,494.004,1347.36)"><stop offset="0" style="stop-color:rgb(66,200,245);stop-opacity:1"/><stop offset="1" style="stop-color:rgb(213,85,159);stop-opacity:1"/></linearGradient>
    </defs>
</svg>
